<?xml version="1.0" standalone="no"?>
<!DOCTYPE svg PUBLIC "-//W3C//DTD SVG 20010904//EN"
 "http://www.w3.org/TR/2001/REC-SVG-20010904/DTD/svg10.dtd">
<svg version="1.0" xmlns="http://www.w3.org/2000/svg"
 width="900.000000pt" height="348.000000pt" viewBox="0 0 900.000000 348.000000"
 preserveAspectRatio="xMidYMid meet">
<metadata>
Created by potrace 1.10, written by Peter Selinger 2001-2011
</metadata>
<g transform="translate(0.000000,348.000000) scale(0.100000,-0.100000)"
fill="#000000" stroke="none">
<path d="M4516 3141 c-10 -11 -21 -48 -27 -87 -5 -38 -12 -76 -15 -84 -8 -18
-18 -67 -37 -170 -7 -41 -19 -85 -25 -97 -7 -12 -12 -31 -12 -43 0 -29 -29
-155 -46 -203 -8 -20 -14 -53 -14 -72 0 -18 -5 -46 -11 -62 -11 -30 -22 -78
-43 -185 -7 -37 -18 -74 -25 -82 -7 -8 -11 -30 -9 -48 l3 -33 69 -1 c66 -1 69
0 87 30 10 17 19 47 19 66 0 19 5 53 11 75 6 22 14 58 19 80 5 22 13 58 18 80
6 22 13 57 16 79 4 21 9 43 13 49 4 6 10 29 15 52 22 114 37 183 47 210 5 17
15 57 21 90 22 121 59 276 70 297 6 10 10 31 10 48 l0 30 -68 0 c-55 0 -72 -4
-86 -19z"/>
<path d="M4079 2939 c-62 -56 -99 -85 -331 -265 -94 -72 -98 -76 -98 -114 0
-35 4 -41 49 -68 27 -17 57 -39 67 -49 11 -11 48 -41 84 -68 36 -27 79 -60 96
-74 17 -14 48 -39 69 -56 22 -16 57 -47 80 -67 66 -61 72 -55 67 69 l-4 83
-111 83 c-62 46 -131 95 -154 108 -24 13 -43 29 -43 36 0 7 21 28 48 47 26 20
95 72 154 117 l106 81 4 86 c6 120 -1 124 -83 51z"/>
<path d="M4760 2892 l0 -98 30 -18 c17 -9 57 -38 90 -64 104 -82 147 -112 158
-112 11 0 32 -31 32 -47 0 -5 -16 -17 -36 -26 -19 -10 -89 -58 -155 -107
l-119 -91 0 -94 c0 -64 4 -95 11 -95 7 0 31 17 53 38 45 39 78 67 166 135 30
24 89 70 130 103 41 33 92 70 113 83 32 20 37 27 37 61 0 22 -6 44 -12 49 -53
43 -128 99 -150 114 -15 9 -35 25 -45 35 -10 10 -52 43 -93 74 -41 32 -100 80
-130 108 -30 27 -60 50 -67 50 -10 0 -13 -24 -13 -98z"/>
<path d="M431 1504 c-29 -21 -26 -44 11 -84 32 -35 242 -311 257 -338 17 -31
54 -8 107 66 28 41 60 89 70 108 11 20 25 33 34 31 16 -3 16 2 2 -247 -10
-174 -7 -182 67 -178 l56 3 3 314 c2 245 -1 316 -10 323 -7 4 -32 8 -56 8 -45
0 -52 -5 -114 -83 -16 -19 -28 -37 -28 -40 0 -15 -88 -132 -101 -135 -8 -1
-24 12 -34 31 -47 78 -142 207 -160 216 -38 18 -81 20 -104 5z"/>
<path d="M6032 1504 c-22 -16 -18 -105 6 -122 13 -10 59 -12 185 -10 l168 3
19 -25 c31 -41 31 -80 -1 -112 -15 -15 -36 -28 -46 -29 -10 0 -90 -1 -178 -2
l-160 -2 0 -170 0 -170 60 0 60 0 -4 113 -3 112 73 0 c41 0 80 -4 87 -9 7 -4
42 -55 76 -112 l63 -104 59 0 c57 0 59 1 62 28 2 19 -6 39 -27 66 -17 21 -31
43 -31 48 0 5 -13 23 -29 41 -45 48 -48 70 -14 83 40 15 63 38 84 84 50 108
-15 244 -134 279 -65 19 -352 27 -375 10z"/>
<path d="M6851 1486 c-12 -18 -21 -39 -21 -45 0 -6 -4 -19 -9 -29 -6 -9 -19
-37 -29 -62 -11 -25 -34 -77 -51 -116 -17 -39 -31 -74 -31 -79 0 -5 -7 -16
-15 -25 -8 -9 -16 -31 -17 -50 l-3 -35 61 -3 c60 -3 61 -2 76 30 29 61 50 116
68 180 13 47 21 63 35 63 22 0 27 -10 55 -100 13 -38 26 -74 30 -80 4 -5 11
-21 15 -35 4 -14 19 -42 31 -62 13 -21 24 -42 24 -48 0 -6 -81 -11 -217 -12
l-217 -3 -20 -38 c-15 -29 -18 -42 -9 -55 9 -15 40 -17 313 -17 352 0 342 -3
298 87 -14 29 -36 78 -48 108 -12 30 -26 59 -31 65 -5 5 -9 19 -9 31 0 12 -7
27 -15 34 -8 7 -15 19 -15 26 0 8 -13 42 -29 76 -16 35 -41 92 -55 127 -35 86
-49 101 -102 101 -37 0 -45 -4 -63 -34z"/>
<path d="M7326 1508 c-23 -13 -23 -113 1 -127 10 -5 79 -7 168 -4 137 5 152 4
172 -13 34 -30 37 -58 10 -90 l-24 -28 -169 0 -169 -1 -3 -57 c-4 -72 -1 -73
172 -63 160 8 208 -1 232 -46 14 -28 14 -33 -1 -55 -25 -39 -59 -46 -220 -44
-82 1 -158 1 -168 1 -16 -1 -18 -9 -15 -58 l3 -58 180 -3 c150 -2 186 0 215
14 19 9 46 22 60 28 31 15 68 68 76 112 10 53 -4 99 -41 139 -19 20 -35 38
-35 41 0 2 11 22 25 44 30 48 32 97 5 149 -32 63 -72 96 -131 109 -69 15 -321
22 -343 10z"/>
<path d="M7887 1513 c-12 -12 -7 -72 7 -80 7 -4 35 -41 61 -80 l48 -73 62 0
c72 0 83 11 57 59 -30 55 -94 146 -116 163 -21 17 -105 25 -119 11z"/>
<path d="M8382 1513 c-7 -3 -43 -51 -80 -106 -36 -56 -92 -137 -124 -179 l-58
-77 0 -138 c0 -95 4 -143 12 -151 7 -7 33 -12 60 -12 66 0 73 15 64 151 -6
104 -6 108 19 137 14 16 25 33 25 37 0 3 20 33 45 65 25 32 45 61 45 65 0 3
27 42 60 85 33 43 60 83 60 88 0 31 -81 54 -128 35z"/>
<path d="M1179 1497 c-13 -10 -15 -40 -12 -202 3 -233 18 -295 86 -365 37 -38
128 -83 151 -74 14 5 16 18 14 63 -3 53 -5 57 -39 75 -68 37 -74 62 -70 288 3
184 2 200 -16 213 -22 18 -92 19 -114 2z"/>
<path d="M1608 1493 c-13 -15 -15 -45 -9 -200 5 -158 4 -186 -11 -220 -18 -41
-44 -69 -80 -87 -39 -19 -49 -119 -13 -132 26 -10 128 46 165 92 61 75 68 113
69 345 1 230 4 219 -68 219 -24 0 -44 -7 -53 -17z"/>
<path d="M2010 1500 c-8 -5 -24 -10 -36 -10 -33 0 -104 -57 -121 -98 -23 -55
-13 -135 21 -171 29 -30 103 -71 129 -71 9 0 19 -4 22 -10 3 -5 21 -10 40 -10
19 0 36 -4 39 -9 3 -4 23 -11 45 -14 50 -6 90 -35 91 -64 0 -26 -35 -53 -83
-62 -32 -7 -32 -7 -32 -66 l0 -60 39 2 c22 2 58 12 81 23 135 65 156 219 41
298 -34 23 -170 72 -201 72 -33 0 -117 36 -127 54 -14 24 16 66 47 66 40 0 56
26 53 84 -3 53 -17 66 -48 46z"/>
<path d="M2124 1496 c-10 -27 1 -109 16 -116 47 -22 57 -30 73 -63 16 -35 20
-37 67 -37 61 0 74 17 57 75 -17 56 -81 118 -144 138 -62 20 -62 20 -69 3z"/>
<path d="M2405 1494 c-18 -18 -14 -86 6 -110 17 -21 102 -18 122 4 20 22 23
92 5 110 -18 18 -113 15 -133 -4z"/>
<path d="M2619 1493 c-12 -15 -15 -72 -18 -320 -3 -295 -3 -301 17 -312 29
-16 87 -14 102 4 9 11 11 78 9 262 l-3 248 99 0 100 0 9 38 c6 23 6 48 0 65
l-9 27 -146 3 c-129 2 -147 1 -160 -15z"/>
<path d="M3207 1492 c-10 -10 -17 -21 -17 -25 0 -4 -11 -31 -25 -61 -14 -30
-25 -61 -25 -69 0 -8 -6 -20 -14 -26 -8 -7 -17 -24 -21 -38 -3 -15 -24 -64
-46 -108 -21 -45 -39 -91 -39 -103 0 -20 5 -22 58 -22 68 0 78 6 88 45 4 17
11 35 16 42 5 6 13 24 18 40 50 159 81 201 95 131 11 -56 57 -180 87 -237 15
-30 28 -60 28 -67 0 -11 -40 -14 -215 -14 l-215 0 -22 -44 c-38 -78 -43 -77
316 -74 l311 3 3 23 c2 13 -3 31 -10 40 -8 9 -23 37 -33 62 -10 25 -31 73 -47
108 -15 35 -28 68 -28 73 0 5 -13 37 -28 71 -53 117 -92 211 -92 223 0 43
-110 63 -143 27z"/>
<path d="M3667 1498 c-23 -12 -23 -90 0 -109 12 -11 66 -14 235 -16 l219 -1
13 27 c14 27 11 76 -6 98 -11 14 -436 16 -461 1z"/>
<path d="M4419 1497 c-9 -7 -19 -25 -23 -42 -4 -16 -19 -54 -33 -85 -28 -61
-50 -109 -69 -155 -7 -16 -25 -56 -40 -87 -36 -76 -30 -88 46 -88 49 0 62 3
66 18 3 9 12 31 19 47 8 17 23 55 34 85 11 30 26 73 34 95 8 22 20 40 27 40 6
0 26 -43 44 -95 18 -52 37 -104 43 -115 5 -11 19 -39 31 -62 25 -47 28 -73 10
-73 -7 -1 -104 0 -215 0 l-202 1 -16 -30 c-8 -17 -15 -44 -15 -61 l0 -30 315
0 315 0 6 24 c3 15 -2 38 -15 63 -23 42 -81 171 -81 180 0 2 -13 34 -30 70
-16 35 -30 69 -30 75 0 5 -7 22 -14 36 -8 15 -21 43 -29 62 -37 90 -50 116
-65 128 -20 15 -92 15 -113 -1z"/>
<path d="M5495 1496 c-86 -33 -160 -98 -197 -171 -29 -59 -35 -177 -13 -246
35 -107 125 -196 222 -219 49 -12 65 5 61 65 -3 46 -5 50 -45 70 -64 32 -102
73 -118 129 -21 69 -19 85 15 152 29 56 72 94 105 94 39 0 64 97 33 128 -14
14 -22 14 -63 -2z"/>
<path d="M5632 1498 c-13 -16 -13 -87 -1 -110 5 -10 18 -18 29 -18 59 0 129
-94 130 -175 0 -106 -26 -149 -120 -198 -43 -23 -45 -25 -47 -72 -3 -58 8 -74
45 -68 76 13 170 86 211 164 56 108 50 246 -15 345 -36 53 -84 93 -144 117
-62 25 -77 28 -88 15z"/>
<path d="M3669 1232 c-17 -12 -19 -28 -19 -181 0 -116 4 -171 12 -179 7 -7 33
-12 60 -12 69 0 78 19 67 135 -5 50 -7 96 -4 104 4 11 31 12 143 6 122 -6 140
-5 155 10 9 9 17 27 17 40 0 13 3 30 6 39 3 8 -3 22 -15 33 -19 15 -43 18
-212 18 -142 0 -196 -3 -210 -13z"/>
<path d="M432 1082 c-21 -17 -23 -24 -20 -117 l3 -100 55 -3 c72 -4 80 8 80
113 0 66 -3 85 -18 98 -29 26 -73 30 -100 9z"/>
<path d="M1827 1093 c-13 -13 -7 -75 12 -111 35 -68 122 -126 182 -120 33 3
34 4 37 55 l3 52 -45 19 c-36 16 -48 29 -65 66 -20 46 -20 46 -69 46 -27 0
-52 -3 -55 -7z"/>
<path d="M2727 607 c-3 -7 3 -35 12 -63 14 -39 22 -50 42 -52 40 -5 50 16 35
73 -11 47 -14 50 -48 53 -23 2 -37 -2 -41 -11z"/>
<path d="M2916 586 c-9 -19 -16 -40 -16 -48 0 -19 -34 -113 -47 -130 -11 -14
-23 -59 -26 -98 -2 -22 2 -25 32 -25 34 0 35 2 53 60 10 33 18 71 18 85 0 14
5 32 10 40 16 23 46 -19 55 -77 11 -77 30 -113 58 -113 31 0 42 14 55 70 36
154 62 216 87 206 8 -3 58 -5 112 -5 169 1 277 -2 295 -7 19 -6 30 -28 22 -49
-4 -11 -28 -15 -92 -17 l-87 -3 -3 -28 -3 -29 78 7 c68 6 81 5 102 -12 20 -17
22 -22 12 -41 -13 -24 -32 -25 -323 -22 -121 1 -126 1 -133 -20 -14 -44 -17
-44 263 -42 l214 2 29 29 c35 36 40 88 9 116 -18 16 -18 20 -4 47 20 39 2 92
-41 118 -27 17 -52 18 -278 17 l-249 -2 -13 -40 c-8 -21 -17 -63 -21 -92 -3
-29 -11 -56 -16 -59 -16 -10 -37 17 -44 55 -3 20 -12 60 -20 89 -13 47 -17 52
-43 52 -23 0 -32 -7 -45 -34z"/>
<path d="M3772 583 l3 -38 89 -5 c105 -7 126 -23 126 -95 0 -36 -5 -48 -32
-70 -27 -23 -39 -26 -92 -25 -99 4 -98 4 -94 -32 l3 -33 95 4 c104 4 128 13
160 66 30 49 28 150 -5 194 -42 57 -75 71 -171 71 l-85 0 3 -37z"/>
<path d="M4074 606 c-3 -8 -4 -23 -2 -33 3 -16 17 -18 120 -21 76 -2 120 -7
126 -15 14 -17 82 -198 82 -219 0 -10 9 -22 21 -28 23 -13 69 -5 69 11 0 6 6
25 13 42 8 18 29 72 49 120 l34 89 135 0 134 1 3 -84 c5 -133 14 -125 -132
-120 -120 3 -124 2 -131 -19 -4 -12 -2 -27 3 -32 12 -12 303 -12 314 0 3 4 8
77 10 162 l3 155 -190 0 -189 0 -12 -25 c-7 -14 -20 -45 -29 -70 -49 -132 -67
-151 -80 -89 -4 17 -13 42 -21 57 -24 46 -18 62 20 62 42 0 62 21 46 49 -10
20 -19 21 -201 21 -156 0 -191 -3 -195 -14z"/>
<path d="M5160 605 c-7 -8 -18 -15 -25 -15 -19 0 -67 -79 -72 -121 -4 -23 1
-49 11 -70 9 -17 16 -36 16 -41 0 -4 -31 -8 -69 -8 -72 0 -99 -14 -87 -45 5
-13 20 -15 78 -13 67 3 73 5 76 26 4 28 13 28 42 -3 14 -15 35 -25 52 -25 24
0 28 4 28 30 0 23 -7 33 -30 45 -57 30 -59 140 -2 167 21 10 28 21 30 51 3 31
0 37 -16 37 -11 0 -25 -7 -32 -15z"/>
<path d="M5247 613 c-4 -3 -7 -19 -7 -34 0 -21 7 -32 30 -44 37 -19 50 -43 50
-94 0 -34 -5 -44 -40 -71 -49 -39 -56 -80 -14 -80 44 0 79 34 103 98 32 89 8
168 -65 211 -38 23 -47 25 -57 14z"/>
<path d="M5399 599 c-19 -36 10 -54 82 -51 81 4 119 -11 119 -48 0 -35 -13
-40 -100 -40 -42 0 -71 -5 -78 -12 -5 -7 -13 -35 -16 -63 -4 -27 -9 -58 -12
-67 -4 -13 3 -21 21 -28 41 -16 60 1 60 52 l0 43 57 3 c49 3 62 8 88 34 l31
31 21 -23 c14 -14 27 -20 42 -16 11 3 51 6 87 6 77 0 112 17 89 45 -11 13 -29
16 -104 13 -50 -2 -98 -6 -106 -8 -11 -4 -16 5 -18 35 -2 30 -12 49 -40 78
l-36 37 -88 0 c-79 0 -88 -2 -99 -21z"/>
<path d="M5669 599 c-8 -16 -8 -24 1 -33 17 -17 208 -24 231 -8 11 8 20 9 24
2 3 -5 37 -10 75 -10 76 0 117 -12 127 -36 12 -31 -23 -49 -110 -54 l-82 -5
-5 -54 -5 -54 -130 -1 -130 -1 -3 -28 c-4 -31 -10 -30 143 -26 55 1 120 2 145
3 l45 1 0 50 0 50 39 0 c37 0 40 -3 65 -52 28 -56 67 -77 96 -53 21 18 19 24
-20 67 -19 21 -35 42 -35 46 0 5 14 22 30 37 34 32 38 63 14 112 -23 48 -70
68 -160 68 -41 0 -84 -5 -94 -10 -13 -7 -21 -7 -25 0 -4 6 -53 10 -115 10
-101 0 -110 -2 -121 -21z"/>
<path d="M3190 465 c-7 -8 -10 -22 -6 -30 5 -13 24 -15 113 -13 108 3 108 3
108 28 0 25 -1 25 -101 28 -81 2 -104 0 -114 -13z"/>
<path d="M4083 470 c-13 -5 -23 -13 -23 -18 0 -22 32 -30 128 -31 84 -1 104 1
108 14 13 33 -15 45 -105 44 -47 0 -96 -4 -108 -9z"/>
<path d="M4613 474 c-7 -3 -13 -14 -13 -25 0 -21 44 -44 63 -32 6 3 43 7 81 7
69 1 71 2 71 26 0 25 -1 25 -95 27 -52 1 -101 -1 -107 -3z"/>
<path d="M4077 344 c-4 -4 -7 -17 -7 -30 0 -21 4 -22 113 -26 61 -2 118 -2
125 0 8 3 12 16 10 31 l-3 26 -116 3 c-63 1 -118 -1 -122 -4z"/>
</g>
</svg>
